<?xml version="1.0" encoding="UTF-8" standalone="no" ?>
<!DOCTYPE svg PUBLIC "-//W3C//DTD SVG 1.1//EN" "http://www.w3.org/Graphics/SVG/1.1/DTD/svg11.dtd">
<svg xmlns="http://www.w3.org/2000/svg" xmlns:xlink="http://www.w3.org/1999/xlink" version="1.1" width="400" height="400" viewBox="0 0 400 400" xml:space="preserve">
<desc>Created with Fabric.js 3.6.2</desc>
<defs>
</defs>
<g transform="matrix(4 0 0 4 200 200)" id="Layer_1"  >
<path style="stroke: none; stroke-width: 1; stroke-dasharray: none; stroke-linecap: butt; stroke-dashoffset: 0; stroke-linejoin: miter; stroke-miterlimit: 4; fill: rgb(0,0,0); fill-rule: nonzero; opacity: 1;"  transform=" translate(-25, -25)" d="M 45.293 19.562 l 0.699 -6.683 l -6.139 -2.731 l -2.73 -6.139 l -6.683 0.698 L 25 0.765 l -5.439 3.942 l -6.682 -0.698 l -2.731 6.138 l -6.139 2.732 l 0.698 6.682 L 0.765 25 l 3.942 5.438 l -0.699 6.683 l 6.139 2.731 l 2.73 6.139 l 6.683 -0.698 L 25 49.235 l 5.439 -3.942 l 6.682 0.698 l 2.731 -6.138 l 6.139 -2.732 l -0.698 -6.682 L 49.235 25 L 45.293 19.562 z M 43.851 35.885 l -5.514 2.453 l -2.453 5.513 l -5.999 -0.626 L 25 46.765 l -4.885 -3.54 l -6 0.626 l -2.453 -5.514 l -5.513 -2.452 l 0.626 -5.999 L 3.235 25 l 3.541 -4.885 l -0.626 -6 l 5.514 -2.453 l 2.453 -5.513 l 5.999 0.626 L 25 3.235 l 4.885 3.54 l 6 -0.626 l 2.453 5.514 l 5.513 2.452 l -0.626 5.999 L 46.765 25 l -3.541 4.885 L 43.851 35.885 z" stroke-linecap="round" />
</g>
<g transform="matrix(4 0 0 4 204 199.41)" id="Layer_1"  >
<polygon style="stroke: none; stroke-width: 1; stroke-dasharray: none; stroke-linecap: butt; stroke-dashoffset: 0; stroke-linejoin: miter; stroke-miterlimit: 4; fill: rgb(0,0,0); fill-rule: nonzero; opacity: 1;"  points="-5,6.73 -11.29,0.44 -12.71,1.85 -5,9.56 12.71,-8.15 11.29,-9.56 " />
</g>
</svg>